<svg width="450" height="334" viewBox="0 0 450 334" fill="none" xmlns="http://www.w3.org/2000/svg">
<g clip-path="url(#clip0)">
<g opacity="0.2">
<path d="M625.896 57.1204V57.1198C626.018 11.262 614.74 -33.907 593.076 -74.3249C571.605 -114.383 540.599 -148.53 502.805 -173.752C532.451 -128.458 548.202 -75.4703 548.101 -21.3188C548.101 131.667 425.315 255.861 273.833 255.861C220.981 255.917 169.272 240.529 125.059 211.602C149.79 248.941 183.339 279.62 222.749 300.923C262.514 322.417 306.998 333.69 352.201 333.729C503.365 333.621 625.896 209.8 625.896 57.1204Z" stroke="#616C87" stroke-width="0.5"/>
<path d="M501.05 -175.52C476.342 -212.861 442.815 -243.551 403.427 -264.871C363.681 -286.383 319.212 -297.682 274.018 -297.75C122.854 -297.75 0.250647 -173.965 0.250648 -21.0695L0.250647 -21.0689C0.15152 24.8115 11.4502 69.9982 33.1318 110.432C54.6204 150.507 85.6408 184.669 123.449 209.91C93.747 164.558 77.9708 111.492 78.0824 57.2618C78.0827 -95.7247 200.869 -219.918 352.35 -219.918C405.199 -219.969 456.895 -204.528 501.05 -175.52Z" stroke="#616C87" stroke-width="0.5"/>
</g>
</g>
<defs>
<clipPath id="clip0">
<rect width="450" height="334" fill="white"/>
</clipPath>
</defs>
</svg>
