<svg width="112" height="36" viewBox="0 0 112 36" fill="none" xmlns="http://www.w3.org/2000/svg">
<g clip-path="url(#clip0)">
<path d="M37.6231 35.2783C35.4172 35.3224 33.0166 34.5539 30.6899 33.49C30.2638 33.2982 29.859 33.0809 29.4598 32.8479C29.0337 32.5994 28.9442 32.2116 29.1871 31.7826C29.6757 30.919 30.1658 30.0558 30.6573 29.1932C31.001 28.5909 31.3448 28.4829 31.9769 28.804C33.2709 29.4602 34.6047 30.0128 36.0336 30.2912C37.4626 30.5696 38.9285 30.6221 40.3589 30.1903C40.9086 30.0241 41.3233 29.6917 41.4086 29.0795C41.4938 28.4673 41.2268 28.0114 40.7523 27.6591C40.5961 27.5463 40.4302 27.4474 40.2566 27.3636C39.3106 26.8892 38.2879 26.6435 37.2737 26.3693C35.9683 26.0242 34.6814 25.6193 33.4768 24.9972C31.386 23.9177 30.3675 22.1876 30.2865 19.8467C30.1885 17.0555 31.93 14.8851 34.5479 13.9689C36.0862 13.432 37.6728 13.3894 39.268 13.5783C41.3139 13.8284 43.2903 14.4805 45.0833 15.4973C45.7509 15.8709 45.8375 16.2146 45.4497 16.8652L44.0137 19.2799C43.6784 19.8396 43.3688 19.9234 42.7878 19.6407C41.4285 18.9774 40.0222 18.4589 38.5066 18.2956C37.7651 18.216 37.0194 18.2075 36.2993 18.4504C35.4726 18.7345 35.0606 19.3183 35.153 20.0683C35.178 20.2655 35.2502 20.4539 35.3634 20.6173C35.4766 20.7807 35.6276 20.9145 35.8035 21.0072C36.5137 21.4333 37.3063 21.6506 38.0961 21.8594C39.5009 22.2387 40.9143 22.5824 42.2481 23.1861C43.1195 23.5571 43.9212 24.0739 44.6188 24.7145C45.792 25.8352 46.2878 27.2315 46.3361 28.8182C46.3716 29.9645 46.2026 31.0696 45.6102 32.0767C44.8233 33.4133 43.5918 34.1704 42.1742 34.6661C40.829 35.1334 39.4313 35.2726 37.6231 35.2783Z" fill="#222734"/>
<path d="M80.5203 28.0966L81.1965 26.2699L85.4279 14.8354C85.6041 14.3609 85.9009 14.1493 86.4222 14.1479H90.364C90.9435 14.1479 91.1608 14.493 90.9321 15.0314L84.8271 29.3579C84.178 30.882 83.5203 32.4033 82.8811 33.9317C82.8042 34.1523 82.6568 34.3414 82.4617 34.4698C82.2666 34.5982 82.0345 34.6587 81.8016 34.6419H79.1624C78.9298 34.6574 78.6985 34.5964 78.5039 34.4681C78.3092 34.3399 78.1619 34.1515 78.0843 33.9317C75.4176 27.6562 72.7467 21.3826 70.0716 15.1109C69.7875 14.4589 69.9949 14.1507 70.6966 14.1507H74.4579C75.0886 14.1507 75.3428 14.3339 75.5616 14.922C77.1714 19.2638 78.7864 23.6051 80.4067 27.946C80.4237 27.99 80.4237 28.0596 80.5203 28.0966Z" fill="#222734"/>
<path d="M61.5959 17.358V0.984612C61.5929 0.868988 61.5962 0.753284 61.6059 0.638025C61.6428 0.308483 61.8218 0.123826 62.1556 0.120985C63.4889 0.112463 64.8218 0.112463 66.1541 0.120985C66.5064 0.120985 66.6811 0.29712 66.7308 0.646548C66.7431 0.752139 66.7478 0.858464 66.745 0.964726V33.7683C66.7446 33.911 66.7332 34.0535 66.7109 34.1945C66.6998 34.3073 66.6486 34.4125 66.5664 34.4907C66.4843 34.5689 66.3768 34.615 66.2635 34.6206C66.1584 34.6336 66.0526 34.6397 65.9467 34.6391H62.3843C61.7621 34.6391 61.5988 34.4771 61.5988 33.8479C61.5969 28.3508 61.5959 22.8542 61.5959 17.358Z" fill="#222734"/>
<path d="M98.9989 16.8026C99.3 16.4104 99.6254 16.0375 99.9733 15.6861C102.424 13.2543 106.517 12.8026 109.435 14.6492C109.776 14.8692 110.094 15.1218 110.387 15.4035C110.671 15.6776 110.737 15.9219 110.529 16.2557C109.922 17.2178 109.306 18.1743 108.682 19.125C108.482 19.429 108.114 19.4389 107.8 19.1861C105.514 17.3253 101.321 17.6605 99.729 21.0696C99.4361 21.7019 99.2867 22.3912 99.2915 23.088V33.8124C99.2915 34.4927 99.1381 34.6447 98.4549 34.6447H94.9464C94.3782 34.6447 94.1808 34.4587 94.1808 33.8805V14.8964C94.1808 14.3793 94.4081 14.1563 94.9279 14.1535C95.8938 14.1487 96.8597 14.1487 97.8256 14.1535C98.3356 14.1535 98.4932 14.2955 98.5813 14.7955C98.6992 15.4603 98.8242 16.1222 98.9478 16.7841C98.9492 16.7841 98.9634 16.787 98.9989 16.8026Z" fill="#222734"/>
<path d="M50.8134 24.3835V14.993C50.8134 14.2941 50.964 14.1407 51.6657 14.1407H55.1727C55.7551 14.1407 55.9625 14.3453 55.9625 14.9234V33.8493C55.9625 34.436 55.7636 34.632 55.1798 34.632H51.589C50.9838 34.632 50.8177 34.4672 50.8177 33.855C50.8139 30.7007 50.8124 27.5435 50.8134 24.3835Z" fill="#222734"/>
<path d="M53.4142 1.67635C53.829 1.67915 54.2393 1.76363 54.6215 1.92497C55.0037 2.08631 55.3503 2.32136 55.6417 2.61668C55.9331 2.912 56.1634 3.26182 56.3196 3.64617C56.4758 4.03051 56.5547 4.44186 56.5519 4.85671C56.5491 5.27156 56.4646 5.6818 56.3033 6.06401C56.1419 6.44621 55.9069 6.79289 55.6116 7.08426C55.3163 7.37563 54.9664 7.60597 54.5821 7.76214C54.1977 7.91832 53.7864 7.99726 53.3716 7.99446C51.6301 7.97741 50.1898 6.52857 50.2068 4.81268C50.2228 3.97358 50.5681 3.17442 51.1682 2.58766C51.7682 2.0009 52.5749 1.67359 53.4142 1.67635Z" fill="#222734"/>
<path d="M24.7298 21.3055C24.7347 23.1182 24.2888 24.9038 23.4324 26.5016C22.576 28.0993 21.3359 29.4591 19.8237 30.4588C21.0106 28.6626 21.6416 26.5563 21.6376 24.4034C21.6376 18.3666 16.7924 13.4661 10.8152 13.4661C8.71376 13.4638 6.65815 14.0804 4.90479 15.2388C5.88488 13.7446 7.221 12.5175 8.79296 11.6678C10.3649 10.8181 12.1234 10.3724 13.9104 10.3709C19.8862 10.3752 24.7298 15.27 24.7298 21.3055Z" fill="#16BFA1"/>
<path d="M19.8237 30.4587C18.8445 31.9531 17.5092 33.1806 15.938 34.0311C14.3668 34.8815 12.6089 35.3281 10.8223 35.3308C4.84656 35.3308 2.55629e-05 30.4374 2.55629e-05 24.3935C-0.00389297 22.5798 0.44275 20.7935 1.29984 19.1951C2.15693 17.5967 3.39762 16.2362 4.91048 15.2359C3.72128 17.0343 3.0893 19.1437 3.09374 21.2997C3.09374 27.3366 7.93886 32.2371 13.9161 32.2371C16.0174 32.2391 18.0726 31.6204 19.8237 30.4587Z" fill="#178780"/>
</g>
<defs>
<clipPath id="clip0">
<rect width="110.651" height="35.1655" fill="white" transform="translate(0 0.114647)"/>
</clipPath>
</defs>
</svg>
