<svg xmlns="http://www.w3.org/2000/svg" id="Layer_1" data-name="Layer 1" version="1.1" width="778.989" height="247.568"><defs id="defs3981"><style id="style3979">.cls-1{fill:#363636}</style></defs><path class="cls-1" d="M264.87 247.555c-15.53.31-32.43-5.1-48.81-12.59-3-1.35-5.85-2.88-8.66-4.52-3-1.75-3.63-4.48-1.92-7.5q5.16-9.12 10.35-18.23c2.42-4.24 4.84-5 9.29-2.74 9.11 4.62 18.5 8.51 28.56 10.47 10.06 1.96 20.38 2.33 30.45-.71 3.87-1.17 6.79-3.51 7.39-7.82.6-4.31-1.28-7.52-4.62-10a23.16 23.16 0 00-3.49-2.08c-6.66-3.34-13.86-5.07-21-7-9.19-2.43-18.25-5.28-26.73-9.66-14.72-7.6-21.89-19.78-22.46-36.26-.69-19.65 11.57-34.93 30-41.38 10.83-3.78 22-4.08 33.23-2.75a110.07 110.07 0 0140.94 13.51c4.7 2.63 5.31 5.05 2.58 9.63l-10.11 17c-2.36 3.94-4.54 4.53-8.63 2.54-9.57-4.67-19.47-8.32-30.14-9.47-5.22-.56-10.47-.62-15.54 1.09-5.82 2-8.72 6.11-8.07 11.39a8.71 8.71 0 004.58 6.61c5 3 10.58 4.53 16.14 6 9.89 2.67 19.84 5.09 29.23 9.34a58.62 58.62 0 0116.69 10.76c8.26 7.89 11.75 17.72 12.09 28.89.25 8.07-.94 15.85-5.11 22.94-5.54 9.41-14.21 14.74-24.19 18.23-9.47 3.29-19.31 4.27-32.04 4.31z" id="path3985" fill="#363636"/><path class="cls-1" d="M566.87 196.995l4.76-12.86 29.79-80.5c1.24-3.34 3.33-4.83 7-4.84h27.75c4.08 0 5.61 2.43 4 6.22l-42.98 100.86c-4.57 10.73-9.2 21.44-13.7 32.2a7.48 7.48 0 01-7.6 5h-18.58a7.52 7.52 0 01-7.59-5q-28.16-66.27-56.41-132.5c-2-4.59-.54-6.76 4.4-6.76h26.48c4.44 0 6.23 1.29 7.77 5.43q17 45.85 34.11 91.69c.12.31.12.8.8 1.06z" id="path3987" fill="#363636"/><path class="cls-1" d="M433.64 121.395V6.125a22.16 22.16 0 01.07-2.44c.26-2.32 1.52-3.62 3.87-3.64q14.08-.09 28.15 0c2.48 0 3.71 1.24 4.06 3.7a15.85 15.85 0 01.1 2.24v230.94a19.62 19.62 0 01-.24 3 3.33 3.33 0 01-3.15 3 17.28 17.28 0 01-2.23.13h-25.08c-4.38 0-5.53-1.14-5.53-5.57q-.02-58.05-.02-116.09z" id="path3989" fill="#363636"/><path class="cls-1" d="M696.96 117.485a83 83 0 016.86-7.86c17.25-17.12 46.07-20.3 66.61-7.3a44.13 44.13 0 016.7 5.31c2 1.93 2.47 3.65 1 6q-6.41 10.16-13 20.2c-1.41 2.14-4 2.21-6.21.43-16.09-13.1-45.61-10.74-56.82 13.26a33.26 33.26 0 00-3.08 14.21v75.5c0 4.79-1.08 5.86-5.89 5.86h-24.7c-4 0-5.39-1.31-5.39-5.38v-133.65c0-3.64 1.6-5.21 5.26-5.23q10.2-.05 20.4 0c3.59 0 4.7 1 5.32 4.52.83 4.68 1.71 9.34 2.58 14 .01 0 .11.02.36.13z" id="path3991" fill="#363636"/><path class="cls-1" d="M357.73 170.855v-66.11c0-4.92 1.06-6 6-6h24.69c4.1 0 5.56 1.44 5.56 5.51v133.24c0 4.13-1.4 5.51-5.51 5.51h-25.28c-4.26 0-5.43-1.16-5.43-5.47q-.04-33.31-.03-66.68z" id="path3993" fill="#363636"/><path class="cls-1" d="M376.04 10.995a22.24 22.24 0 11-.3 44.48c-12.26-.12-22.4-10.32-22.28-22.4a22.51 22.51 0 0122.58-22.08z" id="path3995" fill="#363636"/><path d="M174.1 149.185a77 77 0 01-34.54 64.44 77.06 77.06 0 0012.77-42.63c0-42.5-34.11-77-76.19-77a75.34 75.34 0 00-41.61 12.48 75.9 75.9 0 0163.4-34.27c42.07.03 76.17 34.49 76.17 76.98z" id="path3997" fill="#98eadc"/><path d="M139.56 213.625a75.9 75.9 0 01-63.37 34.3c-42.07 0-76.19-34.45-76.19-77a77.09 77.09 0 0134.57-64.47 77.11 77.11 0 00-12.79 42.69c0 42.5 34.11 77 76.19 77a75.1 75.1 0 0041.59-12.52z" id="path3999" fill="#0ca"/></svg>
